{
  "accessors": [
    {
      "bufferView": 2,
      "componentType": 5126,
      "count": 1358,
      "max": [
        2.1921143531799316,
        2.0634641647338867,
        2.7210960388183594
      ],
      "min": [
        -1.999743938446045,
        -2.0893924236297607,
        -2.0768909454345703
      ],
      "type": "VEC3"
    },
    {
      "bufferView": 2,
      "byteOffset": 16296,
      "componentType": 5126,
      "count": 1358,
      "max": [
        0.9985153079032898,
        0.9955289959907532,
        0.9986386895179749
      ],
      "min": [
        -0.9996914863586426,
        -0.9975956082344055,
        -0.9987261891365051
      ],
      "type": "VEC3"
    },
    {
      "bufferView": 3,
      "componentType": 5126,
      "count": 1358,
      "max": [
        0.9996792078018188,
        0.9969823360443115,
        0.9184324741363525,
        1.0
      ],
      "min": [
        -0.9999383687973022,
        -0.9997040033340454,
        -0.9996354579925537,
        1.0
      ],
      "type": "VEC4"
    },
    {
      "bufferView": 1,
      "componentType": 5126,
      "count": 1358,
      "max": [
        0.9929394721984863,
        0.9881981611251831
      ],
      "min": [
        0.005926537327468395,
        0.010902468115091324
      ],
      "type": "VEC2"
    },
    {
      "bufferView": 0,
      "componentType": 5125,
      "count": 7416,
      "type": "SCALAR"
    }
  ],
  "asset": {
    "extras": {
      "author": "Meerschaum Digital (https://sketchfab.com/meerschaumdigital)",
      "license": "CC-BY-4.0 (http://creativecommons.org/licenses/by/4.0/)",
      "source": "https://sketchfab.com/3d-models/apple-315c36aceae940a0ac7325949c97db93",
      "title": "Apple"
    },
    "generator": "Sketchfab-10.52.0",
    "version": "2.0"
  },
  "bufferViews": [
    {
      "buffer": 0,
      "byteLength": 29664,
      "name": "floatBufferViews",
      "target": 34963
    },
    {
      "buffer": 0,
      "byteLength": 10864,
      "byteOffset": 29664,
      "byteStride": 8,
      "name": "floatBufferViews",
      "target": 34962
    },
    {
      "buffer": 0,
      "byteLength": 32592,
      "byteOffset": 40528,
      "byteStride": 12,
      "name": "floatBufferViews",
      "target": 34962
    },
    {
      "buffer": 0,
      "byteLength": 21728,
      "byteOffset": 73120,
      "byteStride": 16,
      "name": "floatBufferViews",
      "target": 34962
    }
  ],
  "buffers": [
    {
      "byteLength": 94848,
      "uri": "scene.bin"
    }
  ],
  "images": [
    {
      "uri": "textures/Apple_PBR_baseColor.jpeg"
    },
    {
      "uri": "textures/Apple_PBR_metallicRoughness.png"
    },
    {
      "uri": "textures/Apple_PBR_normal.png"
    }
  ],
  "materials": [
    {
      "doubleSided": true,
      "name": "Apple_PBR",
      "normalTexture": {
        "index": 2
      },
      "occlusionTexture": {
        "index": 1
      },
      "pbrMetallicRoughness": {
        "baseColorTexture": {
          "index": 0
        },
        "metallicFactor": 0.0,
        "metallicRoughnessTexture": {
          "index": 1
        }
      }
    }
  ],
  "meshes": [
    {
      "name": "Apple_Apple PBR_0",
      "primitives": [
        {
          "attributes": {
            "NORMAL": 1,
            "POSITION": 0,
            "TANGENT": 2,
            "TEXCOORD_0": 3
          },
          "indices": 4,
          "material": 0,
          "mode": 4
        }
      ]
    }
  ],
  "nodes": [
    {
      "children": [
        1
      ],
      "matrix": [
        1.0,
        0.0,
        0.0,
        0.0,
        0.0,
        2.220446049250313e-16,
        -1.0,
        0.0,
        0.0,
        1.0,
        2.220446049250313e-16,
        0.0,
        0.0,
        0.0,
        0.0,
        1.0
      ],
      "name": "Sketchfab_model"
    },
    {
      "children": [
        2
      ],
      "matrix": [
        1.0,
        0.0,
        0.0,
        0.0,
        0.0,
        0.0,
        1.0,
        0.0,
        0.0,
        -1.0,
        0.0,
        0.0,
        0.0,
        0.0,
        0.0,
        1.0
      ],
      "name": "4bd5d0e0aa1a41f08fc385c2bce93189.fbx"
    },
    {
      "children": [
        3
      ],
      "name": "RootNode"
    },
    {
      "children": [
        4
      ],
      "matrix": [
        1.6497349739074707,
        0.0,
        0.0,
        0.0,
        0.0,
        -2.687759427654704e-07,
        -1.649734973907449,
        0.0,
        0.0,
        1.649734973907449,
        -2.687759427654704e-07,
        0.0,
        0.3234284520149231,
        3.443561553955078,
        4.6267291509138886e-07,
        1.0
      ],
      "name": "Apple"
    },
    {
      "mesh": 0,
      "name": "Apple_Apple PBR_0"
    }
  ],
  "samplers": [
    {
      "magFilter": 9729,
      "minFilter": 9987,
      "wrapS": 10497,
      "wrapT": 10497
    }
  ],
  "scene": 0,
  "scenes": [
    {
      "name": "Sketchfab_Scene",
      "nodes": [
        0
      ]
    }
  ],
  "textures": [
    {
      "sampler": 0,
      "source": 0
    },
    {
      "sampler": 0,
      "source": 1
    },
    {
      "sampler": 0,
      "source": 2
    }
  ]
}
