{
  "accessors": [
    {
      "bufferView": 2,
      "componentType": 5126,
      "count": 25740,
      "max": [
        0.4667741358280182,
        -0.007845347747206688,
        0.5034218430519104
      ],
      "min": [
        0.06654062122106552,
        -0.654594361782074,
        0.041606605052948
      ],
      "type": "VEC3"
    },
    {
      "bufferView": 2,
      "byteOffset": 308880,
      "componentType": 5126,
      "count": 25740,
      "max": [
        0.9999957084655762,
        0.9999194145202637,
        0.9998263120651245
      ],
      "min": [
        -0.9999249577522278,
        -0.9995479583740234,
        -0.9999936819076538
      ],
      "type": "VEC3"
    },
    {
      "bufferView": 1,
      "componentType": 5126,
      "count": 25740,
      "max": [
        0.9936419725418091,
        1.0
      ],
      "min": [
        0.0,
        2.8000000384054147e-05
      ],
      "type": "VEC2"
    },
    {
      "bufferView": 0,
      "componentType": 5125,
      "count": 147384,
      "type": "SCALAR"
    }
  ],
  "asset": {
    "extras": {
      "author": "Moshe Caine (https://sketchfab.com/mosheca)",
      "license": "CC-BY-4.0 (http://creativecommons.org/licenses/by/4.0/)",
      "source": "https://sketchfab.com/3d-models/pear-itseez3d-d32f3f2eedf2476fba8c6b4dce14cbc5",
      "title": "Pear - itSeez3D"
    },
    "generator": "Sketchfab-11.70.0",
    "version": "2.0"
  },
  "bufferViews": [
    {
      "buffer": 0,
      "byteLength": 589536,
      "name": "floatBufferViews",
      "target": 34963
    },
    {
      "buffer": 0,
      "byteLength": 205920,
      "byteOffset": 589536,
      "byteStride": 8,
      "name": "floatBufferViews",
      "target": 34962
    },
    {
      "buffer": 0,
      "byteLength": 617760,
      "byteOffset": 795456,
      "byteStride": 12,
      "name": "floatBufferViews",
      "target": 34962
    }
  ],
  "buffers": [
    {
      "byteLength": 1413216,
      "uri": "scene.bin"
    }
  ],
  "images": [
    {
      "uri": "textures/material_0_baseColor.png"
    }
  ],
  "materials": [
    {
      "doubleSided": true,
      "name": "material_0",
      "pbrMetallicRoughness": {
        "baseColorTexture": {
          "index": 0
        },
        "metallicFactor": 0.0,
        "roughnessFactor": 0.49395516965058317
      }
    }
  ],
  "meshes": [
    {
      "name": "Object_0",
      "primitives": [
        {
          "attributes": {
            "NORMAL": 1,
            "POSITION": 0,
            "TEXCOORD_0": 2
          },
          "indices": 3,
          "material": 0,
          "mode": 4
        }
      ]
    }
  ],
  "nodes": [
    {
      "children": [
        1
      ],
      "matrix": [
        1.0,
        0.0,
        0.0,
        0.0,
        0.0,
        -0.9969258904457092,
        -0.07835052162408851,
        0.0,
        0.0,
        0.07835052162408851,
        -0.9969258904457092,
        0.0,
        0.0,
        -0.0790391489863397,
        0.5769447684288025,
        1.0
      ],
      "name": "Sketchfab_model"
    },
    {
      "children": [
        2
      ],
      "name": "pear.obj.cleaner.materialmerger.gles"
    },
    {
      "mesh": 0,
      "name": "Object_2"
    }
  ],
  "samplers": [
    {
      "magFilter": 9729,
      "minFilter": 9987,
      "wrapS": 10497,
      "wrapT": 10497
    }
  ],
  "scene": 0,
  "scenes": [
    {
      "name": "Sketchfab_Scene",
      "nodes": [
        0
      ]
    }
  ],
  "textures": [
    {
      "sampler": 0,
      "source": 0
    }
  ]
}
