{
  "accessors": [
    {
      "bufferView": 2,
      "componentType": 5126,
      "count": 65532,
      "max": [
        2.3473949432373047,
        4.3441352844238281,
        2.0294947624206543
      ],
      "min": [
        -2.201263427734375,
        0.037741970270872116,
        -1.9448671340942383
      ],
      "type": "VEC3"
    },
    {
      "bufferView": 2,
      "byteOffset": 786384,
      "componentType": 5126,
      "count": 65532,
      "max": [
        0.99998700618743896,
        0.9999879002571106,
        0.99998056888580322
      ],
      "min": [
        -0.99999135732650757,
        -0.99997496604919434,
        -0.99999344348907471
      ],
      "type": "VEC3"
    },
    {
      "bufferView": 1,
      "componentType": 5126,
      "count": 65532,
      "max": [
        0.9927249550819397,
        0.99664866924285889
      ],
      "min": [
        0.0019530670251697302,
        0.0019529556157067418
      ],
      "type": "VEC2"
    },
    {
      "bufferView": 0,
      "componentType": 5125,
      "count": 333327,
      "max": [
        65531
      ],
      "min": [
        0
      ],
      "type": "SCALAR"
    },
    {
      "bufferView": 2,
      "byteOffset": 1572768,
      "componentType": 5126,
      "count": 65532,
      "max": [
        2.3242149353027344,
        5.4614071846008301,
        2.0292267799377441
      ],
      "min": [
        -2.1977710723876953,
        0.039821110665798187,
        -1.9267611503601074
      ],
      "type": "VEC3"
    },
    {
      "bufferView": 2,
      "byteOffset": 2359152,
      "componentType": 5126,
      "count": 65532,
      "max": [
        0.99989688396453857,
        0.99994474649429321,
        0.99986618757247925
      ],
      "min": [
        -0.99999558925628662,
        -0.99998080730438232,
        -0.99989932775497437
      ],
      "type": "VEC3"
    },
    {
      "bufferView": 1,
      "byteOffset": 524256,
      "componentType": 5126,
      "count": 65532,
      "max": [
        0.99543344974517822,
        0.98156744241714478
      ],
      "min": [
        0.0098976511508226395,
        0.0019530483987182379
      ],
      "type": "VEC2"
    },
    {
      "bufferView": 0,
      "byteOffset": 1333308,
      "componentType": 5125,
      "count": 331722,
      "max": [
        65531
      ],
      "min": [
        0
      ],
      "type": "SCALAR"
    },
    {
      "bufferView": 2,
      "byteOffset": 3145536,
      "componentType": 5126,
      "count": 64490,
      "max": [
        2.347332239151001,
        5.4659023284912109,
        2.029247522354126
      ],
      "min": [
        -2.201263427734375,
        0.039601940661668777,
        -1.9448671340942383
      ],
      "type": "VEC3"
    },
    {
      "bufferView": 2,
      "byteOffset": 3919416,
      "componentType": 5126,
      "count": 64490,
      "max": [
        0.99994003772735596,
        0.9999879002571106,
        0.99995714426040649
      ],
      "min": [
        -0.99999558925628662,
        -0.99998080730438232,
        -0.99999344348907471
      ],
      "type": "VEC3"
    },
    {
      "bufferView": 1,
      "byteOffset": 1048512,
      "componentType": 5126,
      "count": 64490,
      "max": [
        0.998046875,
        0.99465864896774292
      ],
      "min": [
        0.001953125,
        0.001953125
      ],
      "type": "VEC2"
    },
    {
      "bufferView": 0,
      "byteOffset": 2660196,
      "componentType": 5125,
      "count": 234939,
      "max": [
        64489
      ],
      "min": [
        0
      ],
      "type": "SCALAR"
    }
  ],
  "asset": {
    "extras": {
      "author": "pengilley (https://sketchfab.com/pengilley)",
      "license": "CC-BY-NC-SA-4.0 (http://creativecommons.org/licenses/by-nc-sa/4.0/)",
      "source": "https://sketchfab.com/3d-models/plum-high-poly-44c0870445934aad9f5469b633732dd9",
      "title": "Plum - High poly"
    },
    "generator": "Sketchfab-9.35.0",
    "version": "2.0"
  },
  "bufferViews": [
    {
      "buffer": 0,
      "byteLength": 3599952,
      "byteOffset": 0,
      "name": "floatBufferViews",
      "target": 34963
    },
    {
      "buffer": 0,
      "byteLength": 1564432,
      "byteOffset": 3599952,
      "byteStride": 8,
      "name": "floatBufferViews",
      "target": 34962
    },
    {
      "buffer": 0,
      "byteLength": 4693296,
      "byteOffset": 5164384,
      "byteStride": 12,
      "name": "floatBufferViews",
      "target": 34962
    }
  ],
  "buffers": [
    {
      "byteLength": 9857680,
      "uri": "scene.bin"
    }
  ],
  "extensionsUsed": [
    "KHR_materials_unlit"
  ],
  "images": [
    {
      "uri": "textures/plum_300k_baseColor.png"
    }
  ],
  "materials": [
    {
      "doubleSided": false,
      "extensions": {
        "KHR_materials_unlit": {}
      },
      "name": "plum_300k",
      "pbrMetallicRoughness": {
        "baseColorFactor": [
          1,
          1,
          1,
          1
        ],
        "baseColorTexture": {
          "index": 0,
          "texCoord": 0
        },
        "metallicFactor": 0,
        "roughnessFactor": 1
      }
    }
  ],
  "meshes": [
    {
      "name": "plum300k_plum_300k_0",
      "primitives": [
        {
          "attributes": {
            "NORMAL": 1,
            "POSITION": 0,
            "TEXCOORD_0": 2
          },
          "indices": 3,
          "material": 0,
          "mode": 4
        }
      ]
    },
    {
      "name": "plum300k_plum_300k_0",
      "primitives": [
        {
          "attributes": {
            "NORMAL": 5,
            "POSITION": 4,
            "TEXCOORD_0": 6
          },
          "indices": 7,
          "material": 0,
          "mode": 4
        }
      ]
    },
    {
      "name": "plum300k_plum_300k_0",
      "primitives": [
        {
          "attributes": {
            "NORMAL": 9,
            "POSITION": 8,
            "TEXCOORD_0": 10
          },
          "indices": 11,
          "material": 0,
          "mode": 4
        }
      ]
    }
  ],
  "nodes": [
    {
      "children": [
        1
      ],
      "name": "RootNode (gltf orientation matrix)",
      "rotation": [
        -0.70710678118654746,
        -0,
        -0,
        0.70710678118654757
      ]
    },
    {
      "children": [
        2
      ],
      "matrix": [
        0.10000000149011612,
        0,
        0,
        0,
        0,
        0.10000000149011612,
        0,
        0,
        0,
        0,
        0.10000000149011612,
        0,
        0,
        0,
        0,
        1
      ],
      "name": "RootNode (model correction matrix)"
    },
    {
      "children": [
        3
      ],
      "matrix": [
        1,
        0,
        0,
        0,
        0,
        0,
        1,
        0,
        0,
        -1,
        0,
        0,
        0,
        0,
        0,
        1
      ],
      "name": "2d1031185a414ae0a26f6080ff4b203e.fbx"
    },
    {
      "children": [
        4
      ],
      "name": "RootNode"
    },
    {
      "children": [
        5,
        6,
        7
      ],
      "name": "plum300k"
    },
    {
      "mesh": 0,
      "name": "plum300k_plum_300k_0"
    },
    {
      "mesh": 1,
      "name": "plum300k_plum_300k_0"
    },
    {
      "mesh": 2,
      "name": "plum300k_plum_300k_0"
    }
  ],
  "samplers": [
    {
      "magFilter": 9729,
      "minFilter": 9987,
      "wrapS": 10497,
      "wrapT": 10497
    }
  ],
  "scene": 0,
  "scenes": [
    {
      "name": "OSG_Scene",
      "nodes": [
        0
      ]
    }
  ],
  "textures": [
    {
      "sampler": 0,
      "source": 0
    }
  ]
}

